<?xml version="1.0" encoding="utf-8"?>
<!-- Generator: Adobe Illustrator 26.1.0, SVG Export Plug-In . SVG Version: 6.00 Build 0)  -->
<svg version="1.1" id="Layer_1" xmlns="http://www.w3.org/2000/svg" xmlns:xlink="http://www.w3.org/1999/xlink" x="0px" y="0px"
	 viewBox="0 0 185 267" style="enable-background:new 0 0 185 267;" xml:space="preserve">
<style type="text/css">
	.st0{fill:#FBB03B;stroke:#000000;stroke-miterlimit:10;}
	.st1{fill:#B5811E;stroke:#000000;stroke-miterlimit:10;}
	.st2{fill:#FCEE9A;stroke:#000000;stroke-miterlimit:10;}
</style>
<g>
	<g>
		<path class="st0" d="M184.5,30.5c-1.38-3.11-6.59-5.74-17-11c-8.35-4.21-17.43-8.8-30-11c-12.11-2.12-20.04-3.5-28,0
			c-5.12,2.26-9.46,6.19-25,45c-10.08,25.18-12.31,33.66-8,39c4.57,5.66,12.94,3.41,15,9c1.56,4.23-2.28,8.11-9,20
			c-4.4,7.78-2.4,5.49-9,18c-8,15.16-15.11,30.78-23,46c-1.27,2.45-3.96,7.6-2,10c1.05,1.29,3.33,1.64,5,1c2.77-1.07,3.69-4.81,4-6
			c3.55-13.4,12.96-24.52,19-37c9.33-19.26,7.68-13.25,13-25c5.25-11.59,8.18-20.36,14-21c2.05-0.22,2.24,0.8,8,3
			c5.89,2.25,12.54,4.78,18,3c3.91-1.28,5.75-4.28,9-9c5.26-7.63,11.91-14.26,17-22C180.57,44.35,187.83,38.01,184.5,30.5z
			 M94.5,80.5c-3.25-1.19,3.69-24.23,8-36c3.27-8.93,6.51-15.42,13-18c2.63-1.05,7.32-2.05,9,0c2.36,2.87-2.56,10.03-10,22
			C98.67,73.98,96.32,81.17,94.5,80.5z M118.5,80.5c-4.02,4.36-8.24,8.95-10,8c-3.25-1.76,3.86-21.54,10-34c0.05-0.1,2.37-4.07,7-12
			c5.08-8.7,7.69-13.05,11-13c0.22,0,1.81,0.34,5,1c3.69,0.77,3.84,0.86,4,1c2.68,2.48-3.27,13.17-6,18c-2.18,3.87-2.71,4.37-9,14
			C123.94,73.54,122.36,76.31,118.5,80.5z M157.5,61.5c-5.06,7.45-7.59,11.18-11,15c-6.59,7.39-17.8,17.72-20,16
			c-0.67-0.52-0.81-2.38,9-21c16.47-31.26,21.24-34.28,25-34c2.57,0.19,5.01,1.94,6,4C167.62,43.82,167.22,47.2,157.5,61.5z"/>
		<path class="st1" d="M9.5,262.5c2.1,2.99,6.39,4.55,10,4c8.8-1.34,9.72-14.64,21-38c10.15-21.03,19.09-30.33,15-36
			c-2.12-2.94-6.78-3.55-10-3c-8.53,1.45-10.7,11.63-22,35C12.18,247.91,5.28,256.49,9.5,262.5z"/>
	</g>
	<path class="st2" d="M154.5,73.5c0.03,1.42,4.56,1.05,8,4c5.4,4.62,4.21,14.04,5,14c0.52-0.03,0.25-4.14,2-10
		c0.75-2.52,1.13-3.78,2-5c3.62-5.07,11.12-4.93,11-6c-0.04-0.32-0.73-0.51-4-1c-6-0.9-6.06-0.61-7-1c-4.47-1.88-4.64-9.16-6-9
		c-1.15,0.14,0.03,5.23-3,9C159.49,72.25,154.47,72.01,154.5,73.5z"/>
</g>
</svg>
